HIERARCHY
ROOT reference
{
  OFFSET -65.3212 -1.93545 -120.338
  CHANNELS 6 Xposition Yposition Zposition Zrotation Xrotation Yrotation
  JOINT Hips
  {
    OFFSET 0 78.7191 0
    CHANNELS 6 Xposition Yposition Zposition Zrotation Xrotation Yrotation
    JOINT Chest
    {
      OFFSET 0 8.7983 -4.7612
      CHANNELS 6 Xposition Yposition Zposition Zrotation Xrotation Yrotation
      JOINT Chest2
      {
        OFFSET 0 8.0291 0.4195
        CHANNELS 6 Xposition Yposition Zposition Zrotation Xrotation Yrotation
        JOINT Chest3
        {
          OFFSET 0 9.9351 -2.2114
          CHANNELS 6 Xposition Yposition Zposition Zrotation Xrotation Yrotation
          JOINT Neck
          {
            OFFSET 0 22.3885 -0.4656
            CHANNELS 6 Xposition Yposition Zposition Zrotation Xrotation Yrotation
            JOINT Head
            {
              OFFSET -0.0001 12.643 3.4389
              CHANNELS 6 Xposition Yposition Zposition Zrotation Xrotation Yrotation
              End Site
              {
                OFFSET 0.0001 17.6655 0.5274
              }
            }
          }
          JOINT LeftCollar
          {
            OFFSET 2.2603 21.606 7.4023
            CHANNELS 6 Xposition Yposition Zposition Zrotation Xrotation Yrotation
            JOINT LeftShoulder
            {
              OFFSET 13.5163 -1.1332 -5.0146
              CHANNELS 6 Xposition Yposition Zposition Zrotation Xrotation Yrotation
              JOINT LeftElbow
              {
                OFFSET -0.0995 -28.05 -0.2431
                CHANNELS 6 Xposition Yposition Zposition Zrotation Xrotation Yrotation
                JOINT LeftWrist
                {
                  OFFSET 0.0679 -23.3996 -0.1402
                  CHANNELS 6 Xposition Yposition Zposition Zrotation Xrotation Yrotation
                  JOINT LeftFinger1
                  {
                    OFFSET 0.7932 -9.069 2.5189
                    CHANNELS 6 Xposition Yposition Zposition Zrotation Xrotation Yrotation
                    JOINT LeftFinger11
                    {
                      OFFSET -0.8272 -3.3923 0.5977
                      CHANNELS 6 Xposition Yposition Zposition Zrotation Xrotation Yrotation
                      JOINT LeftFinger12
                      {
                        OFFSET -0.5649 -2.3158 0.4082
                        CHANNELS 6 Xposition Yposition Zposition Zrotation Xrotation Yrotation
                        End Site
                        {
                          OFFSET -0.4919 -1.6479 0.2673
                        }
                      }
                    }
                  }
                  JOINT LeftFinger2
                  {
                    OFFSET 0.9159 -9.2044 0.2193
                    CHANNELS 6 Xposition Yposition Zposition Zrotation Xrotation Yrotation
                    JOINT LeftFinger21
                    {
                      OFFSET 0.0117 -4.1944 -0.0248
                      CHANNELS 6 Xposition Yposition Zposition Zrotation Xrotation Yrotation
                      JOINT LeftFinger22
                      {
                        OFFSET 0.0071 -2.3249 -0.0142
                        CHANNELS 6 Xposition Yposition Zposition Zrotation Xrotation Yrotation
                        End Site
                        {
                          OFFSET -0.1475 -2.0882 0.0028
                        }
                      }
                    }
                  }
                  JOINT LeftFinger3
                  {
                    OFFSET 0.6113 -8.7231 -2.0637
                    CHANNELS 6 Xposition Yposition Zposition Zrotation Xrotation Yrotation
                    JOINT LeftFinger31
                    {
                      OFFSET -0.1927 -3.8059 -0.2383
                      CHANNELS 6 Xposition Yposition Zposition Zrotation Xrotation Yrotation
                      JOINT LeftFinger32
                      {
                        OFFSET -0.1091 -2.1688 -0.1362
                        CHANNELS 6 Xposition Yposition Zposition Zrotation Xrotation Yrotation
                        End Site
                        {
                          OFFSET -0.2358 -1.9176 -0.0906
                        }
                      }
                    }
                  }
                  JOINT LeftFinger4
                  {
                    OFFSET -0.6151 -8.0947 -3.5641
                    CHANNELS 6 Xposition Yposition Zposition Zrotation Xrotation Yrotation
                    JOINT LeftFinger41
                    {
                      OFFSET -0.4882 -2.341 -0.6462
                      CHANNELS 6 Xposition Yposition Zposition Zrotation Xrotation Yrotation
                      JOINT LeftFinger42
                      {
                        OFFSET -0.3575 -1.7167 -0.4742
                        CHANNELS 6 Xposition Yposition Zposition Zrotation Xrotation Yrotation
                        End Site
                        {
                          OFFSET -0.4187 -1.5237 -0.3496
                        }
                      }
                    }
                  }
                  JOINT LeftFinger0
                  {
                    OFFSET -1.42 -1.8761 1.4223
                    CHANNELS 6 Xposition Yposition Zposition Zrotation Xrotation Yrotation
                    JOINT LeftFinger01
                    {
                      OFFSET -1.1471 -3.4929 2.6334
                      CHANNELS 6 Xposition Yposition Zposition Zrotation Xrotation Yrotation
                      JOINT LeftFinger02
                      {
                        OFFSET -0.823 -2.3 1.6571
                        CHANNELS 6 Xposition Yposition Zposition Zrotation Xrotation Yrotation
                        End Site
                        {
                          OFFSET -0.5822 -1.6914 1.1582
                        }
                      }
                    }
                  }
                }
              }
            }
          }
          JOINT RightCollar
          {
            OFFSET -2.2603 21.606 7.4023
            CHANNELS 6 Xposition Yposition Zposition Zrotation Xrotation Yrotation
            JOINT RightShoulder
            {
              OFFSET -13.5187 -1.1334 -5.0155
              CHANNELS 6 Xposition Yposition Zposition Zrotation Xrotation Yrotation
              JOINT RightElbow
              {
                OFFSET 0.0994 -28.0499 -0.2431
                CHANNELS 6 Xposition Yposition Zposition Zrotation Xrotation Yrotation
                JOINT RightWrist
                {
                  OFFSET -0.0679 -23.3996 -0.1402
                  CHANNELS 6 Xposition Yposition Zposition Zrotation Xrotation Yrotation
                  JOINT RightFinger1
                  {
                    OFFSET -0.7932 -9.0691 2.5189
                    CHANNELS 6 Xposition Yposition Zposition Zrotation Xrotation Yrotation
                    JOINT RightFinger11
                    {
                      OFFSET 0.8272 -3.3923 0.5977
                      CHANNELS 6 Xposition Yposition Zposition Zrotation Xrotation Yrotation
                      JOINT RightFinger12
                      {
                        OFFSET 0.565 -2.3158 0.4082
                        CHANNELS 6 Xposition Yposition Zposition Zrotation Xrotation Yrotation
                        End Site
                        {
                          OFFSET 0.4919 -1.6479 0.2673
                        }
                      }
                    }
                  }
                  JOINT RightFinger2
                  {
                    OFFSET -0.916 -9.2044 0.2193
                    CHANNELS 6 Xposition Yposition Zposition Zrotation Xrotation Yrotation
                    JOINT RightFinger21
                    {
                      OFFSET -0.0117 -4.1944 -0.0248
                      CHANNELS 6 Xposition Yposition Zposition Zrotation Xrotation Yrotation
                      JOINT RightFinger22
                      {
                        OFFSET -0.0071 -2.3249 -0.0142
                        CHANNELS 6 Xposition Yposition Zposition Zrotation Xrotation Yrotation
                        End Site
                        {
                          OFFSET 0.1475 -2.0882 0.0028
                        }
                      }
                    }
                  }
                  JOINT RightFinger3
                  {
                    OFFSET -0.6113 -8.7231 -2.0637
                    CHANNELS 6 Xposition Yposition Zposition Zrotation Xrotation Yrotation
                    JOINT RightFinger31
                    {
                      OFFSET 0.1927 -3.8059 -0.2383
                      CHANNELS 6 Xposition Yposition Zposition Zrotation Xrotation Yrotation
                      JOINT RightFinger32
                      {
                        OFFSET 0.1091 -2.1688 -0.1362
                        CHANNELS 6 Xposition Yposition Zposition Zrotation Xrotation Yrotation
                        End Site
                        {
                          OFFSET 0.2358 -1.9176 -0.0906
                        }
                      }
                    }
                  }
                  JOINT RightFinger4
                  {
                    OFFSET 0.6151 -8.0947 -3.564
                    CHANNELS 6 Xposition Yposition Zposition Zrotation Xrotation Yrotation
                    JOINT RightFinger41
                    {
                      OFFSET 0.4882 -2.341 -0.6462
                      CHANNELS 6 Xposition Yposition Zposition Zrotation Xrotation Yrotation
                      JOINT RightFinger42
                      {
                        OFFSET 0.3574 -1.7166 -0.4742
                        CHANNELS 6 Xposition Yposition Zposition Zrotation Xrotation Yrotation
                        End Site
                        {
                          OFFSET 0.4187 -1.5237 -0.3496
                        }
                      }
                    }
                  }
                  JOINT RightFinger0
                  {
                    OFFSET 1.4199 -1.8761 1.4221
                    CHANNELS 6 Xposition Yposition Zposition Zrotation Xrotation Yrotation
                    JOINT RightFinger01
                    {
                      OFFSET 1.1472 -3.4929 2.6336
                      CHANNELS 6 Xposition Yposition Zposition Zrotation Xrotation Yrotation
                      JOINT RightFinger02
                      {
                        OFFSET 0.8229 -2.3 1.6571
                        CHANNELS 6 Xposition Yposition Zposition Zrotation Xrotation Yrotation
                        End Site
                        {
                          OFFSET 0.5822 -1.6914 1.1582
                        }
                      }
                    }
                  }
                }
              }
            }
          }
        }
      }
    }
    JOINT RightHip
    {
      OFFSET -9.412 3.9771 -0.7758
      CHANNELS 6 Xposition Yposition Zposition Zrotation Xrotation Yrotation
      JOINT RightKnee
      {
        OFFSET -0.7531 -40.938 0
        CHANNELS 6 Xposition Yposition Zposition Zrotation Xrotation Yrotation
        JOINT RightAnkle
        {
          OFFSET 0 -40.1986 0
          CHANNELS 6 Xposition Yposition Zposition Zrotation Xrotation Yrotation
          JOINT RightToe
          {
            OFFSET 0 -4.4182 9.239
            CHANNELS 6 Xposition Yposition Zposition Zrotation Xrotation Yrotation
            End Site
            {
              OFFSET 0 0 6.1981
            }
          }
        }
      }
    }
    JOINT LeftHip
    {
      OFFSET 9.4119 3.9773 -0.7758
      CHANNELS 6 Xposition Yposition Zposition Zrotation Xrotation Yrotation
      JOINT LeftKnee
      {
        OFFSET 0.7532 -40.9383 0
        CHANNELS 6 Xposition Yposition Zposition Zrotation Xrotation Yrotation
        JOINT LeftAnkle
        {
          OFFSET 0 -40.1986 0
          CHANNELS 6 Xposition Yposition Zposition Zrotation Xrotation Yrotation
          JOINT LeftToe
          {
            OFFSET 0 -4.4182 9.239
            CHANNELS 6 Xposition Yposition Zposition Zrotation Xrotation Yrotation
            End Site
            {
              OFFSET 0 0 6.1981
            }
          }
        }
      }
    }
  }
}
MOTION
Frames:	4
Frame Time:	0.0333333
-540.826 364.72 816.267 0 0 -0 0 78.7191 0 12.5997 2.73652 -79.1286 1.13687e-013 8.7983 -4.7612 0.576745 2.7481 -1.47757 0 8.0291 0.4195 1.22644 5.48018 -2.98794 0 9.9351 -2.2114 1.22644 5.48018 -2.98795 0 22.3885 -0.4656 0.217486 -21.2077 -5.27479 -0.0001 12.643 3.4389 0.577133 -11.425 -4.13875 2.2603 21.606 7.4023 5.87468 0.437523 -0.167169 13.5163 -1.1332 -5.0146 9.0598 -12.1868 8.29557 -0.0995 -28.05 -0.2431 -42.0099 -72.068 -12.8998 0.0679 -23.3996 -0.1402 5.76716 2.03938 5.64002 0.7932 -9.069 2.5189 -61.673 45.1095 20.6958 -0.8272 -3.3923 0.5977 -46.1518 25.2044 8.38087 -0.5649 -2.3158 0.4082 -46.1228 25.1932 8.37066 0.9159 -9.2044 0.2193 -48.9945 35.5062 13.6825 0.0117 -4.1944 -0.0248 -42.5194 34.7527 4.84324 0.0071 -2.3249 -0.0142 -47.1386 26.6366 7.06983 0.6113 -8.7231 -2.0637 -49.3908 32.2569 11.3434 -0.1927 -3.8059 -0.2383 -43.9933 28.0066 5.59702 -0.1091 -2.1688 -0.1362 -46.9001 29.3826 6.67693 -0.6151 -8.0947 -3.5641 -49.9884 31.1809 12.728 -0.4882 -2.341 -0.6462 -43.692 28.1404 4.06421 -0.3575 -1.7167 -0.4742 -45.7639 29.1739 4.76988 -1.42 -1.8761 1.4223 -9.8935 25.1534 -4.67895 -1.1471 -3.4929 2.6334 17.1163 19.8395 -7.40596 -0.823 -2.3 1.6571 34.5713 33.0526 -18.7083 -2.2603 21.606 7.4023 -2.5614 -3.51513 2.51251 -13.5187 -1.1334 -5.0155 -8.63187 12.039 -19.0136 0.0994 -28.0499 -0.2431 39.787 -70.2297 21.2093 -0.0679 -23.3996 -0.1402 -24.567 -13.362 2.32824 -0.7932 -9.0691 2.5189 3.75425 0.481402 1.3692 0.8272 -3.3923 0.5977 4.06867 1.38735 -0.114783 0.565 -2.3158 0.4082 4.13345 1.40962 -0.117374 -0.916 -9.2044 0.2193 1.86854 1.34095 -0.685608 -0.0117 -4.1944 -0.0248 5.27263 1.79681 0.0429456 -0.0071 -2.3249 -0.0142 3.56055 1.21907 0.0532901 -0.6113 -8.7231 -2.0637 0.558139 3.05288 -0.0445122 0.1927 -3.8059 -0.2383 4.56342 1.76706 0.187307 0.1091 -2.1688 -0.1362 2.88053 1.11349 0.134622 0.6151 -8.0947 -3.564 0.603447 4.67387 0.655143 0.4882 -2.341 -0.6462 3.48475 1.3081 0.256376 0.3574 -1.7166 -0.4742 3.35162 1.25808 0.248197 1.4199 -1.8761 1.4221 9.7951 6.46574 2.17223 1.1472 -3.4929 2.6336 -1.00347 2.27318 0.734272 0.8229 -2.3 1.6571 -0.77223 1.75649 0.5635 -9.412 3.9771 -0.7758 -0.442384 -46.4518 13.1244 -0.7531 -40.938 0 94.4983 74.8074 -92.9115 0 -40.1986 -2.84217e-014 -18.8776 -27.5438 -7.4921 -5.68434e-014 -4.4182 9.239 0.645558 4.41815 -0.278437 9.4119 3.9773 -0.7758 -8.82546 -36.9799 -3.73046 0.7532 -40.9383 1.13687e-013 -1.79026 53.5481 -0.856249 0 -40.1986 0 11.2756 -25.1815 -1.99548 0 -4.4182 9.239 0.0971403 -4.22928 -0.000307308 
-543.723 365.691 816.234 0 0 -0 0 78.7191 0 12.7366 5.17275 -76.9661 0 8.7983 -4.7612 1.34823 2.65609 -2.33686 0 8.0291 0.4195 2.80831 5.25417 -4.74323 0 9.9351 -2.2114 2.8083 5.25398 -4.74322 0 22.3885 -0.4656 0.206467 -21.9368 -4.39507 -0.0001 12.643 3.4389 0.908251 -11.7016 -2.1508 2.2603 21.606 7.4023 7.19273 -0.740481 -1.65935 13.5163 -1.1332 -5.0146 8.14583 -10.4898 8.65523 -0.0995 -28.05 -0.2431 -42.5886 -72.009 -12.2098 0.0679 -23.3996 -0.1402 0.852134 0.406681 7.44947 0.7932 -9.069 2.5189 -58.6893 45.992 17.7844 -0.8272 -3.3923 0.5977 -45.5275 24.9572 8.14434 -0.5649 -2.3158 0.4082 -45.5819 24.979 8.16568 0.9159 -9.2044 0.2193 -44.3549 33.2895 13.1495 0.0117 -4.1944 -0.0248 -41.7854 34.439 4.59363 0.0071 -2.3249 -0.0142 -44.2651 25.4067 6.04755 0.6113 -8.7231 -2.0637 -43.3197 31.3175 11.8196 -0.1927 -3.8059 -0.2383 -42.5132 27.2752 5.07417 -0.1091 -2.1688 -0.1362 -43.265 27.649 5.33742 -0.6151 -8.0947 -3.5641 -44.0415 31.8205 14.3108 -0.4882 -2.341 -0.6462 -40.9088 26.6891 3.1762 -0.3575 -1.7167 -0.4742 -42.7714 27.6676 3.76192 -1.42 -1.8761 1.4223 -8.30367 22.204 -7.62424 -1.1471 -3.4929 2.6334 15.8675 18.6214 -6.713 -0.823 -2.3 1.6571 32.497 31.8258 -17.2404 -2.2603 21.606 7.4023 -2.97116 -3.62367 1.91796 -13.5187 -1.1334 -5.0155 -10.5889 14.5574 -20.886 0.0994 -28.0499 -0.2431 41.167 -67.596 24.3177 -0.0679 -23.3996 -0.1402 -25.883 -14.8156 -1.45443 -0.7932 -9.0691 2.5189 1.88818 -1.10395 3.18593 0.8272 -3.3923 0.5977 2.57295 0.878433 -0.0611124 0.565 -2.3158 0.4082 2.71551 0.927288 -0.0656521 -0.916 -9.2044 0.2193 -2.24286 0.779663 -1.65745 -0.0117 -4.1944 -0.0248 5.20665 1.77434 0.0434518 -0.0071 -2.3249 -0.0142 1.43793 0.48956 0.028035 -0.6113 -8.7231 -2.0637 -5.06601 4.25759 -0.478135 0.1927 -3.8059 -0.2383 3.74362 1.44857 0.164024 0.1091 -2.1688 -0.1362 0.0689744 0.0266138 0.00387773 0.6151 -8.0947 -3.564 -5.09966 7.82483 0.976065 0.4882 -2.341 -0.6462 1.38084 0.516188 0.110981 0.3574 -1.7166 -0.4742 1.1072 0.404238 0.071302 1.4199 -1.8761 1.4221 8.75654 4.68208 5.2014 1.1472 -3.4929 2.6336 -0.790194 1.79673 0.576696 0.8229 -2.3 1.6571 -0.304404 0.697887 0.220792 -9.412 3.9771 -0.7758 1.30953 -55.1798 13.1091 -0.7531 -40.938 1.13687e-013 100.119 74.1429 -99.1765 0 -40.1986 -1.13687e-013 -17.7658 -32.9485 -9.08652 1.13687e-013 -4.4182 9.239 1.02787 6.9522 -0.461655 9.4119 3.9773 -0.7758 -7.30211 -33.6573 -6.5112 0.7532 -40.9383 -1.13687e-013 -1.65762 50.8479 -0.632979 0 -40.1986 0 10.9779 -25.3951 -2.10707 0 -4.4182 9.239 0.214748 -5.10171 0.00079699 
-547.128 369.197 816.164 0 0 -0 0 78.7191 0 13.3073 8.38831 -75.0476 0 8.7983 -4.7612 2.23031 2.28689 -3.08136 1.13687e-013 8.0291 0.4195 4.58573 4.44874 -6.25661 -1.13687e-013 9.9351 -2.2114 4.58574 4.4488 -6.25663 0 22.3885 -0.4656 0.194299 -21.5303 -4.14314 -0.0001 12.643 3.4389 0.974518 -11.7217 -0.672757 2.2603 21.606 7.4023 8.50965 -2.03007 -3.24026 13.5163 -1.1332 -5.0146 6.64076 -7.67104 9.08285 -0.0995 -28.05 -0.2431 -45.357 -71.4488 -13.5937 0.0679 -23.3996 -0.1402 -4.66987 -2.85612 8.6173 0.7932 -9.069 2.5189 -55.094 46.9045 14.3286 -0.8272 -3.3923 0.5977 -44.821 24.6735 7.87975 -0.5649 -2.3158 0.4082 -44.9609 24.7301 7.93274 0.9159 -9.2044 0.2193 -39.2354 30.5693 12.8238 0.0117 -4.1944 -0.0248 -40.9454 34.0744 4.31335 0.0071 -2.3249 -0.0142 -41.0217 23.9358 4.96812 0.6113 -8.7231 -2.0637 -36.4975 29.9565 12.7544 -0.1927 -3.8059 -0.2383 -40.8296 26.4183 4.5025 -0.1091 -2.1688 -0.1362 -39.2046 25.5662 3.97472 -0.6151 -8.0947 -3.5641 -37.2347 32.3024 16.3938 -0.4882 -2.341 -0.6462 -37.7764 24.9728 2.26454 -0.3575 -1.7167 -0.4742 -39.3852 25.8644 2.72014 -1.42 -1.8761 1.4223 -6.66815 18.6933 -10.7197 -1.1471 -3.4929 2.6334 14.459 17.2012 -5.95537 -0.823 -2.3 1.6571 30.1872 30.3592 -15.6383 -2.2603 21.606 7.4023 -3.41951 -3.72956 1.21358 -13.5187 -1.1334 -5.0155 -12.5416 17.5432 -22.7164 0.0994 -28.0499 -0.2431 42.1603 -64.6915 27.1945 -0.0679 -23.3996 -0.1402 -27.5389 -16.4983 -5.50253 -0.7932 -9.0691 2.5189 -0.254757 -2.9255 5.25462 0.8272 -3.3923 0.5977 0.850631 0.290615 -0.0157769 0.565 -2.3158 0.4082 1.08268 0.370193 -0.0208781 -0.916 -9.2044 0.2193 -6.97147 0.146275 -2.91634 -0.0117 -4.1944 -0.0248 5.14068 1.75184 0.0439079 -0.0071 -2.3249 -0.0142 -0.996205 -0.33855 -0.0267295 -0.6113 -8.7231 -2.0637 -11.5892 5.64682 -1.16468 0.1927 -3.8059 -0.2383 2.80735 1.08531 0.131875 0.1091 -2.1688 -0.1362 -3.17332 -1.21556 -0.21265 0.6151 -8.0947 -3.564 -11.8789 11.3771 1.3102 0.4882 -2.341 -0.6462 -0.022235 -0.134464 -0.316376 0.3574 -1.7166 -0.4742 -1.51848 -0.563786 -0.136351 1.4199 -1.8761 1.4221 7.6424 2.54369 8.62052 1.1472 -3.4929 2.6336 -0.522397 1.19328 0.379922 0.8229 -2.3 1.6571 0.219657 -0.508768 -0.158248 -9.412 3.9771 -0.7758 3.86682 -62.4186 11.9729 -0.7531 -40.938 -1.13687e-013 82.3955 75.4578 -81.1072 0 -40.1986 5.68434e-014 -13.1663 -34.3179 -8.52084 1.13687e-013 -4.4182 9.239 1.21823 8.18829 -0.557797 9.4119 3.9773 -0.7758 -4.29062 -28.5404 -9.31207 0.7532 -40.9383 -1.13687e-013 -2.09946 45.2107 0.0061219 0 -40.1986 0 9.36561 -16.7791 -2.20828 0 -4.4182 9.239 0.39828 -7.55033 0.018902 
-550.635 373.873 816.321 0 0 -0 0 78.7191 0 13.6504 11.5659 -73.4488 1.13687e-013 8.7983 -4.7612 3.05075 1.81349 -3.67297 0 8.0291 0.4195 6.21569 3.42514 -7.44231 -1.13687e-013 9.9351 -2.2114 6.21571 3.42519 -7.44233 0 22.3885 -0.4656 0.264019 -20.1201 -4.04668 -0.0001 12.643 3.4389 1.08091 -11.5716 -0.126125 2.2603 21.606 7.4023 9.54012 -3.12983 -4.56092 13.5163 -1.1332 -5.0146 4.74462 -4.41966 9.39912 -0.0995 -28.05 -0.2431 -48.7415 -70.6827 -16.0714 0.0679 -23.3996 -0.1402 -9.33338 -7.36644 8.79566 0.7932 -9.069 2.5189 -51.4408 47.6779 10.8684 -0.8272 -3.3923 0.5977 -44.1176 24.3868 7.61967 -0.5649 -2.3158 0.4082 -44.3592 24.4859 7.70947 0.9159 -9.2044 0.2193 -34.4612 27.7738 12.7902 0.0117 -4.1944 -0.0248 -40.1334 33.7164 4.048 0.0071 -2.3249 -0.0142 -37.9294 22.454 4.0173 0.6113 -8.7231 -2.0637 -30.0494 28.3937 14.0844 -0.1927 -3.8059 -0.2383 -39.2122 25.5705 3.97721 -0.1091 -2.1688 -0.1362 -35.3709 23.4622 2.82782 -0.6151 -8.0947 -3.5641 -30.7003 32.5529 18.7272 -0.4882 -2.341 -0.6462 -34.7976 23.2624 1.4884 -0.3575 -1.7167 -0.4742 -36.2224 24.0891 1.84761 -1.42 -1.8761 1.4223 -5.24025 15.175 -13.4786 -1.1471 -3.4929 2.6334 13.1172 15.8028 -5.25856 -0.823 -2.3 1.6571 28.0184 28.8813 -14.1682 -2.2603 21.606 7.4023 -3.81227 -3.80318 0.496035 -13.5187 -1.1334 -5.0155 -14.2162 20.4636 -24.2005 0.0994 -28.0499 -0.2431 42.9001 -62.1815 29.5466 -0.0679 -23.3996 -0.1402 -29.3513 -18.1385 -8.92964 -0.7932 -9.0691 2.5189 -2.33576 -4.69208 7.24371 0.8272 -3.3923 0.5977 -0.0215805 -0.163471 0.184795 0.565 -2.3158 0.4082 -0.50619 -0.17303 0.00743061 -0.916 -9.2044 0.2193 -11.5659 -0.445281 -4.2831 -0.0117 -4.1944 -0.0248 5.07471 1.72938 0.0443053 -0.0071 -2.3249 -0.0142 -3.36615 -1.14148 -0.113755 -0.6113 -8.7231 -2.0637 -17.9628 7.0275 -2.02227 0.1927 -3.8059 -0.2383 1.89628 0.732415 0.0948797 0.1091 -2.1688 -0.1362 -6.33509 -2.41071 -0.490654 0.6151 -8.0947 -3.564 -18.6744 14.7685 1.61433 0.4882 -2.341 -0.6462 -0.101722 -0.466548 -1.01515 0.3574 -1.7166 -0.4742 -4.05774 -1.49039 -0.384779 1.4199 -1.8761 1.4221 6.62999 0.37776 11.8719 1.1472 -3.4929 2.6336 -0.225111 0.516676 0.163067 0.8229 -2.3 1.6571 0.735955 -1.71881 -0.526391 -9.412 3.9771 -0.7758 7.84197 -59.4849 11.1146 -0.7531 -40.938 0 35.2787 65.3402 -32.6501 0 -40.1986 0 -8.46398 -30.9974 -10.1801 0 -4.4182 9.239 1.20595 8.10901 -0.551481 9.4119 3.9773 -0.7758 -1.09547 -25.0767 -12.0893 0.7532 -40.9383 -1.13687e-013 -3.04604 45.1477 1.70357 0 -40.1986 5.68434e-014 6.98704 -5.00624 -2.15207 1.13687e-013 -4.4182 9.239 1.65414 -9.19316 0.138641 
